<svg width="39" height="39" viewBox="0 0 39 39" fill="none" xmlns="http://www.w3.org/2000/svg">
<path d="M13.0011 19.5C13.0011 23.0897 15.9103 26.0005 19.5 26.0005C23.0897 26.0005 26.0005 23.0897 26.0005 19.5C26.0005 15.9103 23.0897 12.9995 19.5 12.9995C15.9103 12.9995 13.0011 15.9103 13.0011 19.5ZM9.48696 19.5C9.48696 13.9698 13.9698 9.48696 19.5 9.48696C25.0303 9.48696 29.513 13.9698 29.513 19.5C29.513 25.0303 25.0303 29.513 19.5 29.513C13.9698 29.513 9.48696 25.0303 9.48696 19.5ZM27.5693 29.91C27.5693 28.6184 28.6168 27.5693 29.91 27.5693C31.2016 27.5693 32.2506 28.6184 32.2506 29.91C32.2506 31.2016 31.2032 32.249 29.91 32.249C28.6168 32.249 27.5693 31.2016 27.5693 29.91ZM11.6212 3.62751C9.72007 3.71414 8.68679 4.03073 8.00004 4.29851C7.08962 4.65291 6.44067 5.07504 5.75707 5.75707C5.07504 6.4391 4.65133 7.08805 4.29851 7.99847C4.03074 8.68522 3.71414 9.7185 3.6275 11.6197C3.533 13.6752 3.5141 14.2927 3.5141 19.5C3.5141 24.7074 3.53457 25.3232 3.6275 27.3803C3.71414 29.2815 4.03231 30.3132 4.29851 31.0015C4.65291 31.912 5.07504 32.5609 5.75707 33.2445C6.4391 33.9265 7.08805 34.3502 8.00004 34.7031C8.68679 34.9708 9.72007 35.2874 11.6212 35.3741C13.6768 35.4686 14.2942 35.4875 19.5 35.4875C24.7074 35.4875 25.3232 35.467 27.3803 35.3741C29.2815 35.2874 30.3132 34.9693 31.0015 34.7031C31.912 34.3502 32.5609 33.9265 33.2445 33.2445C33.9265 32.5625 34.3487 31.912 34.7031 31.0015C34.9708 30.3148 35.2874 29.2815 35.3741 27.3803C35.4686 25.3232 35.4875 24.7074 35.4875 19.5C35.4875 14.2942 35.4686 13.6768 35.3741 11.6197C35.2874 9.7185 34.9693 8.68522 34.7031 7.99847C34.3487 7.08805 33.9265 6.4391 33.2445 5.75707C32.5625 5.07504 31.912 4.65291 31.0015 4.29851C30.3148 4.03073 29.2815 3.71414 27.3803 3.62751C25.3248 3.533 24.7074 3.5141 19.5 3.5141C14.2942 3.5141 13.6768 3.533 11.6212 3.62751ZM11.4606 38.8819C9.38457 38.7874 7.96696 38.4582 6.72734 37.9762C5.44519 37.4784 4.35836 36.8106 3.2731 35.7269C2.18942 34.6432 1.52157 33.5564 1.02383 32.2727C0.541842 31.033 0.212641 29.6154 0.118134 27.5394C0.0220517 25.4603 0 24.7956 0 19.5C0 14.2044 0.0220517 13.5397 0.118134 11.4606C0.212641 9.38457 0.541842 7.96697 1.02383 6.72735C1.52157 5.4452 2.18784 4.35679 3.2731 3.2731C4.35679 2.18942 5.44362 1.52314 6.72734 1.02383C7.96854 0.541843 9.38457 0.212643 11.4606 0.118136C13.5413 0.0236284 14.2044 1.63168e-06 19.5 1.63168e-06C24.7971 1.63168e-06 25.4603 0.0220533 27.5394 0.118136C29.6154 0.212643 31.033 0.541843 32.2727 1.02383C33.5548 1.52314 34.6416 2.18942 35.7269 3.2731C36.8106 4.35679 37.4769 5.4452 37.9762 6.72735C38.4582 7.96697 38.7889 9.38457 38.8819 11.4606C38.9764 13.5413 38.9984 14.2044 38.9984 19.5C38.9984 24.7956 38.9764 25.4603 38.8819 27.5394C38.7874 29.6154 38.4582 31.033 37.9762 32.2727C37.4769 33.5548 36.8106 34.6416 35.7269 35.7269C34.6432 36.8106 33.5548 37.4784 32.2742 37.9762C31.033 38.4582 29.6154 38.7889 27.541 38.8819C25.4618 38.9764 24.7971 39 19.5016 39C14.2044 39 13.5413 38.9779 11.4606 38.8819Z" fill="#F6F6F6"/>
</svg>
