<svg xmlns="http://www.w3.org/2000/svg" viewBox="0 0 434.7 32.12"><g id="Layer_2" data-name="Layer 2"><g id="Layer_1-2" data-name="Layer 1"><path d="M184.89,13.36V17.8H167v9h21.28v4.5H162.5V.94h25.06c0,1.42,0,2.83,0,4.24,0,.09-.17.23-.29.27a1.54,1.54,0,0,1-.48,0H167v7.89Z"/><path d="M51.12,31.34V.9H65.89a14.23,14.23,0,0,1,13.29,9.38,15.09,15.09,0,0,1,1,5.61c-.19,6.11-2.67,11-8,14.16a11.26,11.26,0,0,1-5.79,1.31c-4.89,0-9.79,0-14.68,0ZM55.56,5.4V26.83l.57,0c3.33,0,6.67,0,10,0a8.92,8.92,0,0,0,8-4.77A11.83,11.83,0,0,0,75,12,9.26,9.26,0,0,0,65.59,5.4h-10Z"/><path d="M334.11.9h14.4A14.19,14.19,0,0,1,362.05,10a16.56,16.56,0,0,1-5.86,19.45,10.44,10.44,0,0,1-5.75,1.84c-5.27.08-10.55.06-15.83.08-.15,0-.31,0-.5,0Zm4.42,4.5V26.85h.59c3.33,0,6.67,0,10,0a8.92,8.92,0,0,0,8-4.74,12,12,0,0,0,.95-9.64,9.39,9.39,0,0,0-9.24-7.06h-10.3Z"/><path d="M417.89,32.12a16.09,16.09,0,0,1-15.2-11.2C400,12.6,404,4.54,411.87,1.27A16.66,16.66,0,0,1,420.72.18a16.19,16.19,0,0,1,13.41,11.73,15.85,15.85,0,0,1-9.34,18.89A17,17,0,0,1,417.89,32.12Zm-11.58-16a10.29,10.29,0,0,0,1.47,5.6,12.33,12.33,0,0,0,17.36,3.81c5.83-3.94,6.87-12.21,2.1-17.16A12.09,12.09,0,0,0,417,4.63,11.37,11.37,0,0,0,406.31,16.08Z"/><path d="M0,15.78C-.18,9.31,4.16,3.59,10,1.26A17.26,17.26,0,0,1,18.79.17a16.22,16.22,0,0,1,13.6,12.28A15.87,15.87,0,0,1,22.46,31,16.49,16.49,0,0,1,4,26.55,16.17,16.17,0,0,1,0,15.78Zm4.4.37a10.28,10.28,0,0,0,1.15,5,12.32,12.32,0,0,0,17.88,4.23,11.32,11.32,0,0,0,2.67-16.1c-3.18-4.06-7.52-5.38-12.49-4.39A11.2,11.2,0,0,0,4.41,16.15Z"/><path d="M201.23,26l2.82-3.17c1.18.86,2.22,1.71,3.34,2.41a16.07,16.07,0,0,0,8.72,2.28,16.77,16.77,0,0,0,6.66-1,5.18,5.18,0,0,0,3.4-3.28A4,4,0,0,0,224,18.46a7,7,0,0,0-3.19-.83c-2.61-.11-5.21-.17-7.82-.21a13.12,13.12,0,0,1-6.09-1.31,7.45,7.45,0,0,1-2.47-10.85A11.26,11.26,0,0,1,211.1.75a20.25,20.25,0,0,1,17.25,3.3l.29.23q-1.24,1.78-2.49,3.54C225,7.21,224,6.59,222.86,6.06a15.25,15.25,0,0,0-9.87-1,9,9,0,0,0-3.88,1.61A3.53,3.53,0,0,0,208,11.13a3.49,3.49,0,0,0,3.13,1.75c2,.12,3.92.08,5.88.14,1.67.06,3.36.05,5,.26a10.32,10.32,0,0,1,6.57,3.31A8.45,8.45,0,0,1,225.91,30a19.84,19.84,0,0,1-7.07,2,25.65,25.65,0,0,1-7.11-.25A18.88,18.88,0,0,1,201.23,26Z"/><path d="M124,31.37c-1.67,0-3.22,0-4.78,0-.16,0-.38-.27-.46-.46q-1.78-4-3.54-8c-.61-1.38-.6-1.38-2.12-1.38-3.82,0-7.64,0-11.47,0a.89.89,0,0,0-1,.6q-2,4.44-4,8.85c-.08.18-.31.43-.47.43-1.49,0-3,0-4.6,0,.37-.83.7-1.57,1-2.31l9.57-21c1-2.22,2-4.43,3-6.66a.6.6,0,0,1,.64-.41c1.37,0,2.75,0,4.12,0a.75.75,0,0,1,.57.37q4.92,10.87,9.8,21.78l3.49,7.78C123.86,31,123.9,31.14,124,31.37ZM112.54,16.89C111,13.38,109.4,10,107.79,6.44c-1.61,3.57-3.17,7-4.74,10.45Z"/><path d="M309.16.93h4.39c0,.22,0,.43,0,.64V20.06a12.94,12.94,0,0,1-.78,5.16,9.79,9.79,0,0,1-6,5.62,19.4,19.4,0,0,1-13.23.05,9.71,9.71,0,0,1-6.31-6.17,11.27,11.27,0,0,1-.57-3.31c-.05-6.71,0-13.41,0-20.12,0-.1,0-.2,0-.34h4.44V1.7q0,9.51,0,19a5.63,5.63,0,0,0,2.7,5.28,10.31,10.31,0,0,0,3,1.11,17.56,17.56,0,0,0,7.22,0,5.7,5.7,0,0,0,5-5.2,19.3,19.3,0,0,0,.19-2.52c0-5.9,0-11.8,0-17.7Z"/><path d="M259.05,31.37c-1.42,0-2.75,0-4.08,0-.12,0-.27-.22-.34-.36a1.53,1.53,0,0,1,0-.48V5.41h-10.8V1h25.9V5.38H259.05Z"/><path d="M384.06,31.33h-4.38V1h4.38Z"/></g></g></svg>